<?xml version="1.0" encoding="UTF-8" standalone="no"?>
<!-- Created with Inkscape (http://www.inkscape.org/) -->

<svg
   xmlns:dc="http://purl.org/dc/elements/1.1/"
   xmlns:cc="http://creativecommons.org/ns#"
   xmlns:rdf="http://www.w3.org/1999/02/22-rdf-syntax-ns#"
   xmlns:svg="http://www.w3.org/2000/svg"
   xmlns="http://www.w3.org/2000/svg"
   xmlns:xlink="http://www.w3.org/1999/xlink"
   xmlns:sodipodi="http://sodipodi.sourceforge.net/DTD/sodipodi-0.dtd"
   xmlns:inkscape="http://www.inkscape.org/namespaces/inkscape"
   width="300mm"
   height="300mm"
   viewBox="0 0 1062.9921 1062.9921"
   id="svg2"
   version="1.1"
   inkscape:version="0.91 r13725"
   sodipodi:docname="icons.svg">
  <defs
     id="defs4">
    <linearGradient
       id="linearGradient4459"
       inkscape:collect="always">
      <stop
         id="stop4461"
         offset="0"
         style="stop-color:#c11a1a;stop-opacity:1" />
      <stop
         id="stop4463"
         offset="1"
         style="stop-color:#e64545;stop-opacity:1" />
    </linearGradient>
    <linearGradient
       inkscape:collect="always"
       id="linearGradient4319">
      <stop
         style="stop-color:#4e4e4e;stop-opacity:0.114"
         offset="0"
         id="stop4321" />
      <stop
         style="stop-color:#af0707;stop-opacity:0"
         offset="1"
         id="stop4323" />
    </linearGradient>
    <linearGradient
       id="linearGradient4275"
       inkscape:collect="always">
      <stop
         id="stop4277"
         offset="0"
         style="stop-color:#841111;stop-opacity:1" />
      <stop
         id="stop4279"
         offset="1"
         style="stop-color:#ba1919;stop-opacity:1" />
    </linearGradient>
    <linearGradient
       inkscape:collect="always"
       id="linearGradient4328">
      <stop
         style="stop-color:#d98383;stop-opacity:1;"
         offset="0"
         id="stop4330" />
      <stop
         style="stop-color:#cf6262;stop-opacity:1"
         offset="1"
         id="stop4332" />
    </linearGradient>
    <linearGradient
       id="Gray_BG"
       inkscape:collect="always">
      <stop
         id="stop4284"
         offset="0"
         style="stop-color:#dddddd;stop-opacity:1" />
      <stop
         id="stop4286"
         offset="1"
         style="stop-color:#f4f4f4;stop-opacity:1" />
    </linearGradient>
    <linearGradient
       inkscape:collect="always"
       id="linearGradient4288">
      <stop
         style="stop-color:#a61616;stop-opacity:1"
         offset="0"
         id="stop4268" />
      <stop
         style="stop-color:#e64545;stop-opacity:1"
         offset="1"
         id="stop4270" />
    </linearGradient>
    <inkscape:perspective
       sodipodi:type="inkscape:persp3d"
       inkscape:vp_x="0 : 531.49605 : 1"
       inkscape:vp_y="0 : 1000 : 0"
       inkscape:vp_z="1062.9921 : 531.49605 : 1"
       inkscape:persp3d-origin="531.49605 : 354.3307 : 1"
       id="perspective4163" />
    <radialGradient
       inkscape:collect="always"
       xlink:href="#Gray_BG"
       id="radialGradient4276"
       cx="807.75208"
       cy="442.33099"
       fx="807.75208"
       fy="442.33099"
       r="117.37973"
       gradientUnits="userSpaceOnUse"
       gradientTransform="matrix(1.7590369,-2.1927716,0.78003179,0.62573989,-951.31092,2020.7064)" />
    <radialGradient
       inkscape:collect="always"
       xlink:href="#linearGradient4288"
       id="radialGradient4280"
       gradientUnits="userSpaceOnUse"
       gradientTransform="matrix(1.6318776,-2.034258,0.72364395,0.58050568,-826.51815,1905.0078)"
       cx="807.75208"
       cy="442.33099"
       fx="807.75208"
       fy="442.33099"
       r="117.37973" />
    <filter
       inkscape:collect="always"
       style="color-interpolation-filters:sRGB"
       id="filter4284"
       x="-0.014301012"
       width="1.028602"
       y="-0.010336821"
       height="1.0206736">
      <feGaussianBlur
         inkscape:collect="always"
         stdDeviation="0.76124132"
         id="feGaussianBlur4286" />
    </filter>
    <linearGradient
       inkscape:collect="always"
       xlink:href="#linearGradient4328"
       id="linearGradient4334"
       x1="844.27332"
       y1="389.46872"
       x2="736.87518"
       y2="432.9306"
       gradientUnits="userSpaceOnUse" />
    <linearGradient
       inkscape:collect="always"
       xlink:href="#Gray_BG"
       id="linearGradient4394"
       x1="238.81531"
       y1="517.36261"
       x2="46.695732"
       y2="381.27786"
       gradientUnits="userSpaceOnUse" />
    <linearGradient
       inkscape:collect="always"
       xlink:href="#linearGradient4288"
       id="linearGradient4398"
       gradientUnits="userSpaceOnUse"
       x1="238.81531"
       y1="517.36261"
       x2="46.695732"
       y2="381.27786"
       gradientTransform="matrix(0.90244767,0,0,0.90244767,12.364324,44.482989)" />
    <linearGradient
       inkscape:collect="always"
       xlink:href="#linearGradient4288"
       id="linearGradient4431"
       gradientUnits="userSpaceOnUse"
       gradientTransform="matrix(0.90244767,0,0,0.90244767,12.364324,44.482989)"
       x1="238.81531"
       y1="517.36261"
       x2="46.695732"
       y2="381.27786" />
    <linearGradient
       inkscape:collect="always"
       xlink:href="#linearGradient4328"
       id="linearGradient4433"
       gradientUnits="userSpaceOnUse"
       x1="844.27332"
       y1="389.46872"
       x2="736.87518"
       y2="432.9306" />
    <filter
       inkscape:collect="always"
       style="color-interpolation-filters:sRGB"
       id="filter4309"
       x="-0.050933236"
       width="1.1018665"
       y="-0.072753362"
       height="1.1455067">
      <feGaussianBlur
         inkscape:collect="always"
         stdDeviation="3.8122936"
         id="feGaussianBlur4311" />
    </filter>
    <linearGradient
       inkscape:collect="always"
       xlink:href="#linearGradient4275"
       id="linearGradient4384"
       gradientUnits="userSpaceOnUse"
       x1="842.37744"
       y1="393.90298"
       x2="728.75708"
       y2="458.70081" />
    <radialGradient
       inkscape:collect="always"
       xlink:href="#linearGradient4319"
       id="radialGradient4386"
       gradientUnits="userSpaceOnUse"
       gradientTransform="matrix(-0.50484622,1.1796777,-0.90552616,-0.38752235,1196.297,-292.27343)"
       cx="774.32849"
       cy="455.29507"
       fx="774.32849"
       fy="455.29507"
       r="63.87587" />
    <linearGradient
       inkscape:collect="always"
       xlink:href="#linearGradient4288"
       id="linearGradient4426"
       gradientUnits="userSpaceOnUse"
       gradientTransform="matrix(0.90244767,0,0,0.90244767,12.364324,44.482989)"
       x1="238.81531"
       y1="517.36261"
       x2="46.695732"
       y2="381.27786" />
    <linearGradient
       inkscape:collect="always"
       xlink:href="#linearGradient4275"
       id="linearGradient4428"
       gradientUnits="userSpaceOnUse"
       x1="842.37744"
       y1="393.90298"
       x2="728.75708"
       y2="458.70081" />
    <radialGradient
       inkscape:collect="always"
       xlink:href="#linearGradient4319"
       id="radialGradient4430"
       gradientUnits="userSpaceOnUse"
       gradientTransform="matrix(-0.50484622,1.1796777,-0.90552616,-0.38752235,1196.297,-292.27343)"
       cx="774.32849"
       cy="455.29507"
       fx="774.32849"
       fy="455.29507"
       r="63.87587" />
    <radialGradient
       inkscape:collect="always"
       xlink:href="#Gray_BG"
       id="radialGradient4444"
       gradientUnits="userSpaceOnUse"
       gradientTransform="matrix(1.4293479,-1.7817896,0.63383368,0.50846007,-1559.5011,2013.7381)"
       cx="807.75208"
       cy="442.33099"
       fx="807.75208"
       fy="442.33099"
       r="117.37973" />
    <radialGradient
       inkscape:collect="always"
       xlink:href="#linearGradient4459"
       id="radialGradient4446"
       gradientUnits="userSpaceOnUse"
       gradientTransform="matrix(1.3260216,-1.6529855,0.58801439,0.47170392,-1458.0977,1919.7244)"
       cx="807.75208"
       cy="442.33099"
       fx="807.75208"
       fy="442.33099"
       r="117.37973" />
    <linearGradient
       inkscape:collect="always"
       xlink:href="#linearGradient4275"
       id="linearGradient4448"
       gradientUnits="userSpaceOnUse"
       x1="842.37744"
       y1="393.90298"
       x2="728.75708"
       y2="458.70081" />
    <radialGradient
       inkscape:collect="always"
       xlink:href="#linearGradient4319"
       id="radialGradient4450"
       gradientUnits="userSpaceOnUse"
       gradientTransform="matrix(-0.54338312,1.2697271,-0.97464855,-0.41710346,710.16748,-98.243491)"
       cx="774.32849"
       cy="455.29507"
       fx="774.32849"
       fy="455.29507"
       r="63.87587" />
    <radialGradient
       inkscape:collect="always"
       xlink:href="#Gray_BG"
       id="radialGradient4484"
       gradientUnits="userSpaceOnUse"
       gradientTransform="matrix(1.4293479,-1.7817896,0.63383368,0.50846007,-1559.5011,2013.7381)"
       cx="807.75208"
       cy="442.33099"
       fx="807.75208"
       fy="442.33099"
       r="117.37973" />
    <radialGradient
       inkscape:collect="always"
       xlink:href="#linearGradient4459"
       id="radialGradient4486"
       gradientUnits="userSpaceOnUse"
       gradientTransform="matrix(1.3260216,-1.6529855,0.58801439,0.47170392,-1458.0977,1919.7244)"
       cx="807.75208"
       cy="442.33099"
       fx="807.75208"
       fy="442.33099"
       r="117.37973" />
    <linearGradient
       inkscape:collect="always"
       xlink:href="#linearGradient4275"
       id="linearGradient4488"
       gradientUnits="userSpaceOnUse"
       x1="842.37744"
       y1="393.90298"
       x2="728.75708"
       y2="458.70081" />
    <radialGradient
       inkscape:collect="always"
       xlink:href="#linearGradient4319"
       id="radialGradient4490"
       gradientUnits="userSpaceOnUse"
       gradientTransform="matrix(-0.54338312,1.2697271,-0.97464855,-0.41710346,710.16748,-98.243491)"
       cx="774.32849"
       cy="455.29507"
       fx="774.32849"
       fy="455.29507"
       r="63.87587" />
    <linearGradient
       inkscape:collect="always"
       xlink:href="#Gray_BG"
       id="linearGradient3687"
       gradientUnits="userSpaceOnUse"
       x1="238.81531"
       y1="517.36261"
       x2="46.695732"
       y2="381.27786"
       gradientTransform="matrix(1.2054795,0,0,1.2054795,256.62721,-262.35515)" />
    <linearGradient
       inkscape:collect="always"
       xlink:href="#linearGradient4288"
       id="linearGradient3689"
       gradientUnits="userSpaceOnUse"
       gradientTransform="matrix(1.0878822,0,0,1.0878822,271.53215,-208.73182)"
       x1="238.81531"
       y1="517.36261"
       x2="46.695732"
       y2="381.27786" />
    <linearGradient
       inkscape:collect="always"
       xlink:href="#linearGradient4275"
       id="linearGradient3711"
       gradientUnits="userSpaceOnUse"
       x1="842.37744"
       y1="393.90298"
       x2="728.75708"
       y2="458.70081" />
    <radialGradient
       inkscape:collect="always"
       xlink:href="#linearGradient4319"
       id="radialGradient3713"
       gradientUnits="userSpaceOnUse"
       gradientTransform="matrix(-0.54338312,1.2697271,-0.97464855,-0.41710346,710.16748,-98.243491)"
       cx="774.32849"
       cy="455.29507"
       fx="774.32849"
       fy="455.29507"
       r="63.87587" />
  </defs>
  <sodipodi:namedview
     id="base"
     pagecolor="#ffffff"
     bordercolor="#666666"
     borderopacity="1.0"
     inkscape:pageopacity="0.0"
     inkscape:pageshadow="2"
     inkscape:zoom="0.61242222"
     inkscape:cx="354.50136"
     inkscape:cy="553.38725"
     inkscape:document-units="px"
     inkscape:current-layer="layer1"
     showgrid="false"
     borderlayer="false"
     inkscape:window-width="1440"
     inkscape:window-height="771"
     inkscape:window-x="0"
     inkscape:window-y="1"
     inkscape:window-maximized="1" />
  <metadata
     id="metadata7">
    <rdf:RDF>
      <cc:Work
         rdf:about="">
        <dc:format>image/svg+xml</dc:format>
        <dc:type
           rdf:resource="http://purl.org/dc/dcmitype/StillImage" />
        <dc:title />
      </cc:Work>
    </rdf:RDF>
  </metadata>
  <g
     inkscape:label="Layer 1"
     inkscape:groupmode="layer"
     id="layer1"
     transform="translate(0,10.629921)">
    <path
       d="m 787.74539,225.07216 q 22.92506,-9.5213 22.92506,-24.86629 0,-14.97524 -23.10994,-24.4041 l 0.27732,9.24398 0,30.87487 -0.0924,9.15154 z m -0.18488,7.30274 q -1.94124,30.41267 -8.50446,43.44668 -6.47078,13.034 -19.7821,13.034 -13.68109,0 -13.68109,-12.47936 0,-9.70618 8.5969,-9.70618 7.6725,0 7.6725,8.22714 0,3.14295 -2.86563,6.10103 1.75635,1.20171 3.60515,1.20171 10.44569,0 10.44569,-21.44602 l -0.27732,-13.77352 -0.36976,-10.44569 q -9.70617,1.57147 -18.76527,1.57147 -9.15153,0 -18.85771,-1.66391 -3.51271,52.41333 -27.9168,52.41333 -13.68108,0 -13.68108,-12.47936 0,-9.70618 8.59689,-9.70618 7.58006,0 7.58006,8.22714 0,3.14295 -2.86563,6.10103 1.75635,1.20171 3.60515,1.20171 10.53813,0 10.53813,-21.35358 l -0.36976,-13.86596 -0.4622,-14.60548 q -30.04292,-11.64741 -30.04292,-31.52196 0,-20.89138 29.95048,-32.26147 2.58832,-56.48068 28.19413,-56.48068 13.68108,0 13.68108,12.47936 0,9.70617 -8.41202,9.70617 -7.94982,0 -7.94982,-7.94981 0,-3.60515 2.95808,-6.28591 -2.21856,-1.10927 -3.60515,-1.10927 -10.53814,0 -10.53814,20.33674 l 0.36976,14.4206 0.36976,10.81545 q 8.87422,-1.66391 18.39551,-1.66391 9.70618,0 19.22747,1.66391 2.68075,-52.41333 28.00924,-52.41333 13.68109,0 13.68109,12.47936 0,9.70617 -8.50446,9.70617 -7.85738,0 -7.85738,-7.85737 0,-3.69759 2.86563,-6.37835 -2.12611,-1.10927 -3.60515,-1.10927 -10.53813,0 -10.53813,20.33674 l 0.36976,14.4206 0.55464,14.8828 q 30.13536,11.37009 30.13536,31.6144 0,20.42918 -29.95048,32.16903 z m -15.43744,-2.77319 -0.0924,-2.58832 -0.18488,-11.09277 0,-30.87487 0.18488,-12.94157 0.0924,-0.73952 q -9.33641,-1.66391 -18.85771,-1.66391 -9.33641,0 -18.30307,1.66391 l 0.0924,1.75636 0.27732,11.92473 0,30.87487 -0.0924,13.68109 q 9.42885,1.66391 18.48795,1.66391 9.0591,0 18.39551,-1.66391 z m -52.59822,-4.43711 -0.0924,-9.24398 0,-30.87487 0.0924,-9.15154 q -22.92505,9.42886 -22.92505,24.86629 0,14.8828 22.92505,24.4041 z"
       style="font-style:normal;font-weight:normal;font-size:medium;line-height:125%;font-family:sans-serif;letter-spacing:0px;word-spacing:0px;fill:#d98383;fill-opacity:1;stroke:none;stroke-width:1px;stroke-linecap:butt;stroke-linejoin:miter;stroke-opacity:1;filter:url(#filter4284)"
       id="path4292"
       inkscape:connector-curvature="0" />
    <path
       inkscape:connector-curvature="0"
       id="path4294"
       style="font-style:normal;font-weight:normal;font-size:medium;line-height:125%;font-family:sans-serif;letter-spacing:0px;word-spacing:0px;fill:#fed0d0;fill-opacity:1;stroke:none;stroke-width:1px;stroke-linecap:butt;stroke-linejoin:miter;stroke-opacity:1"
       d="m 937.02841,232.39292 q 22.92506,-9.5213 22.92506,-24.86629 0,-14.97524 -23.10994,-24.4041 l 0.27732,9.24398 0,30.87487 -0.0924,9.15154 z m -0.18488,7.30274 q -1.94124,30.41267 -8.50446,43.44668 -6.47078,13.034 -19.7821,13.034 -13.68109,0 -13.68109,-12.47936 0,-9.70618 8.5969,-9.70618 7.6725,0 7.6725,8.22714 0,3.14295 -2.86563,6.10103 1.75635,1.20171 3.60515,1.20171 10.44569,0 10.44569,-21.44602 l -0.27732,-13.77352 -0.36976,-10.44569 q -9.70617,1.57147 -18.76527,1.57147 -9.15153,0 -18.85771,-1.66391 -3.51271,52.41333 -27.9168,52.41333 -13.68108,0 -13.68108,-12.47936 0,-9.70618 8.59689,-9.70618 7.58006,0 7.58006,8.22714 0,3.14295 -2.86563,6.10103 1.75635,1.20171 3.60515,1.20171 10.53813,0 10.53813,-21.35358 l -0.36976,-13.86596 -0.4622,-14.60548 q -30.04292,-11.64741 -30.04292,-31.52196 0,-20.89138 29.95048,-32.26147 2.58832,-56.48068 28.19413,-56.48068 13.68108,0 13.68108,12.47936 0,9.70617 -8.41202,9.70617 -7.94982,0 -7.94982,-7.94981 0,-3.60515 2.95808,-6.28591 -2.21856,-1.10927 -3.60515,-1.10927 -10.53814,0 -10.53814,20.33674 l 0.36976,14.4206 0.36976,10.81545 q 8.87422,-1.66391 18.39551,-1.66391 9.70618,0 19.22747,1.66391 2.68075,-52.41333 28.00924,-52.41333 13.68109,0 13.68109,12.47936 0,9.70617 -8.50446,9.70617 -7.85738,0 -7.85738,-7.85737 0,-3.69759 2.86563,-6.37835 -2.12611,-1.10927 -3.60515,-1.10927 -10.53813,0 -10.53813,20.33674 l 0.36976,14.4206 0.55464,14.8828 q 30.13536,11.37009 30.13536,31.6144 0,20.42918 -29.95048,32.16903 z m -15.43744,-2.77319 -0.0924,-2.58832 -0.18488,-11.09277 0,-30.87487 0.18488,-12.94157 0.0924,-0.73952 q -9.33641,-1.66391 -18.85771,-1.66391 -9.33641,0 -18.30307,1.66391 l 0.0924,1.75636 0.27732,11.92473 0,30.87487 -0.0924,13.68109 q 9.42885,1.66391 18.48795,1.66391 9.0591,0 18.39551,-1.66391 z m -52.59822,-4.43711 -0.0924,-9.24398 0,-30.87487 0.0924,-9.15154 q -22.92505,9.42886 -22.92505,24.86629 0,14.8828 22.92505,24.4041 z" />
    <g
       id="g4336"
       transform="translate(83.3154,44.35743)">
      <circle
         r="117.37972"
         cy="420.20865"
         cx="774.98907"
         id="path4254"
         style="fill:url(#radialGradient4276);fill-opacity:1;stroke:#5930fb;stroke-width:0;stroke-linecap:round;stroke-linejoin:miter;stroke-miterlimit:4;stroke-dasharray:none;stroke-opacity:1" />
      <circle
         style="fill:url(#radialGradient4280);fill-opacity:1;stroke:#5930fb;stroke-width:0;stroke-linecap:round;stroke-linejoin:miter;stroke-miterlimit:4;stroke-dasharray:none;stroke-opacity:1"
         id="circle4278"
         cx="774.98907"
         cy="420.20865"
         r="108.89444" />
      <g
         transform="matrix(-0.00816987,0.99996663,-0.99996663,-0.00816987,1200.8926,-351.0286)"
         id="g4300">
        <path
           d="m 808.50011,446.77028 q 22.92506,-9.5213 22.92506,-24.86629 0,-14.97524 -23.10994,-24.4041 l 0.27732,9.24398 0,30.87487 -0.0924,9.15154 z m -0.18488,7.30274 q -1.94124,30.41267 -8.50446,43.44668 -6.47078,13.034 -19.7821,13.034 -13.68109,0 -13.68109,-12.47936 0,-9.70618 8.5969,-9.70618 7.6725,0 7.6725,8.22714 0,3.14295 -2.86563,6.10103 1.75635,1.20171 3.60515,1.20171 10.44569,0 10.44569,-21.44602 l -0.27732,-13.77352 -0.36976,-10.44569 q -9.70617,1.57147 -18.76527,1.57147 -9.15153,0 -18.85771,-1.66391 -3.51271,52.41333 -27.9168,52.41333 -13.68108,0 -13.68108,-12.47936 0,-9.70618 8.59689,-9.70618 7.58006,0 7.58006,8.22714 0,3.14295 -2.86563,6.10103 1.75635,1.20171 3.60515,1.20171 10.53813,0 10.53813,-21.35358 l -0.36976,-13.86596 -0.4622,-14.60548 q -30.04292,-11.64741 -30.04292,-31.52196 0,-20.89138 29.95048,-32.26147 2.58832,-56.48068 28.19413,-56.48068 13.68108,0 13.68108,12.47936 0,9.70617 -8.41202,9.70617 -7.94982,0 -7.94982,-7.94981 0,-3.60515 2.95808,-6.28591 -2.21856,-1.10927 -3.60515,-1.10927 -10.53814,0 -10.53814,20.33674 l 0.36976,14.4206 0.36976,10.81545 q 8.87422,-1.66391 18.39551,-1.66391 9.70618,0 19.22747,1.66391 2.68075,-52.41333 28.00924,-52.41333 13.68109,0 13.68109,12.47936 0,9.70617 -8.50446,9.70617 -7.85738,0 -7.85738,-7.85737 0,-3.69759 2.86563,-6.37835 -2.12611,-1.10927 -3.60515,-1.10927 -10.53813,0 -10.53813,20.33674 l 0.36976,14.4206 0.55464,14.8828 q 30.13536,11.37009 30.13536,31.6144 0,20.42918 -29.95048,32.16903 z m -15.43744,-2.77319 -0.0924,-2.58832 -0.18488,-11.09277 0,-30.87487 0.18488,-12.94157 0.0924,-0.73952 q -9.33641,-1.66391 -18.85771,-1.66391 -9.33641,0 -18.30307,1.66391 l 0.0924,1.75636 0.27732,11.92473 0,30.87487 -0.0924,13.68109 q 9.42885,1.66391 18.48795,1.66391 9.0591,0 18.39551,-1.66391 z m -52.59822,-4.43711 -0.0924,-9.24398 0,-30.87487 0.0924,-9.15154 q -22.92505,9.42886 -22.92505,24.86629 0,14.8828 22.92505,24.4041 z"
           style="font-style:normal;font-weight:normal;font-size:medium;line-height:125%;font-family:sans-serif;letter-spacing:0px;word-spacing:0px;fill:url(#linearGradient4334);fill-opacity:1;stroke:none;stroke-width:1px;stroke-linecap:butt;stroke-linejoin:miter;stroke-opacity:1;filter:url(#filter4284)"
           id="path4302"
           inkscape:connector-curvature="0" />
        <path
           inkscape:connector-curvature="0"
           id="path4304"
           style="font-style:normal;font-weight:normal;font-size:medium;line-height:125%;font-family:sans-serif;letter-spacing:0px;word-spacing:0px;fill:#fed0d0;fill-opacity:1;stroke:none;stroke-width:1px;stroke-linecap:butt;stroke-linejoin:miter;stroke-opacity:1"
           d="m 812.50011,442.77028 q 22.92506,-9.5213 22.92506,-24.86629 0,-14.97524 -23.10994,-24.4041 l 0.27732,9.24398 0,30.87487 -0.0924,9.15154 z m -0.18488,7.30274 q -1.94124,30.41267 -8.50446,43.44668 -6.47078,13.034 -19.7821,13.034 -13.68109,0 -13.68109,-12.47936 0,-9.70618 8.5969,-9.70618 7.6725,0 7.6725,8.22714 0,3.14295 -2.86563,6.10103 1.75635,1.20171 3.60515,1.20171 10.44569,0 10.44569,-21.44602 l -0.27732,-13.77352 -0.36976,-10.44569 q -9.70617,1.57147 -18.76527,1.57147 -9.15153,0 -18.85771,-1.66391 -3.51271,52.41333 -27.9168,52.41333 -13.68108,0 -13.68108,-12.47936 0,-9.70618 8.59689,-9.70618 7.58006,0 7.58006,8.22714 0,3.14295 -2.86563,6.10103 1.75635,1.20171 3.60515,1.20171 10.53813,0 10.53813,-21.35358 l -0.36976,-13.86596 -0.4622,-14.60548 q -30.04292,-11.64741 -30.04292,-31.52196 0,-20.89138 29.95048,-32.26147 2.58832,-56.48068 28.19413,-56.48068 13.68108,0 13.68108,12.47936 0,9.70617 -8.41202,9.70617 -7.94982,0 -7.94982,-7.94981 0,-3.60515 2.95808,-6.28591 -2.21856,-1.10927 -3.60515,-1.10927 -10.53814,0 -10.53814,20.33674 l 0.36976,14.4206 0.36976,10.81545 q 8.87422,-1.66391 18.39551,-1.66391 9.70618,0 19.22747,1.66391 2.68075,-52.41333 28.00924,-52.41333 13.68109,0 13.68109,12.47936 0,9.70617 -8.50446,9.70617 -7.85738,0 -7.85738,-7.85737 0,-3.69759 2.86563,-6.37835 -2.12611,-1.10927 -3.60515,-1.10927 -10.53813,0 -10.53813,20.33674 l 0.36976,14.4206 0.55464,14.8828 q 30.13536,11.37009 30.13536,31.6144 0,20.42918 -29.95048,32.16903 z m -15.43744,-2.77319 -0.0924,-2.58832 -0.18488,-11.09277 0,-30.87487 0.18488,-12.94157 0.0924,-0.73952 q -9.33641,-1.66391 -18.85771,-1.66391 -9.33641,0 -18.30307,1.66391 l 0.0924,1.75636 0.27732,11.92473 0,30.87487 -0.0924,13.68109 q 9.42885,1.66391 18.48795,1.66391 9.0591,0 18.39551,-1.66391 z m -52.59822,-4.43711 -0.0924,-9.24398 0,-30.87487 0.0924,-9.15154 q -22.92505,9.42886 -22.92505,24.86629 0,14.8828 22.92505,24.4041 z" />
      </g>
    </g>
    <g
       inkscape:export-ydpi="108.72731"
       inkscape:export-xdpi="108.72731"
       inkscape:export-filename="/Users/mark/Inkscape/JavaSim/flat_icon.png"
       transform="matrix(1.2054795,0,0,1.2054795,705.50547,198.74627)"
       id="g4417">
      <rect
         y="368.09808"
         x="38.852612"
         height="175.78589"
         width="175.78589"
         id="rect4421"
         style="fill:url(#linearGradient4431);fill-opacity:1" />
      <g
         transform="matrix(-0.00748144,0.91570442,-0.91570442,-0.00748144,516.98767,-251.80137)"
         id="g4423">
        <path
           d="m 808.50011,446.77028 q 22.92506,-9.5213 22.92506,-24.86629 0,-14.97524 -23.10994,-24.4041 l 0.27732,9.24398 0,30.87487 -0.0924,9.15154 z m -0.18488,7.30274 q -1.94124,30.41267 -8.50446,43.44668 -6.47078,13.034 -19.7821,13.034 -13.68109,0 -13.68109,-12.47936 0,-9.70618 8.5969,-9.70618 7.6725,0 7.6725,8.22714 0,3.14295 -2.86563,6.10103 1.75635,1.20171 3.60515,1.20171 10.44569,0 10.44569,-21.44602 l -0.27732,-13.77352 -0.36976,-10.44569 q -9.70617,1.57147 -18.76527,1.57147 -9.15153,0 -18.85771,-1.66391 -3.51271,52.41333 -27.9168,52.41333 -13.68108,0 -13.68108,-12.47936 0,-9.70618 8.59689,-9.70618 7.58006,0 7.58006,8.22714 0,3.14295 -2.86563,6.10103 1.75635,1.20171 3.60515,1.20171 10.53813,0 10.53813,-21.35358 l -0.36976,-13.86596 -0.4622,-14.60548 q -30.04292,-11.64741 -30.04292,-31.52196 0,-20.89138 29.95048,-32.26147 2.58832,-56.48068 28.19413,-56.48068 13.68108,0 13.68108,12.47936 0,9.70617 -8.41202,9.70617 -7.94982,0 -7.94982,-7.94981 0,-3.60515 2.95808,-6.28591 -2.21856,-1.10927 -3.60515,-1.10927 -10.53814,0 -10.53814,20.33674 l 0.36976,14.4206 0.36976,10.81545 q 8.87422,-1.66391 18.39551,-1.66391 9.70618,0 19.22747,1.66391 2.68075,-52.41333 28.00924,-52.41333 13.68109,0 13.68109,12.47936 0,9.70617 -8.50446,9.70617 -7.85738,0 -7.85738,-7.85737 0,-3.69759 2.86563,-6.37835 -2.12611,-1.10927 -3.60515,-1.10927 -10.53813,0 -10.53813,20.33674 l 0.36976,14.4206 0.55464,14.8828 q 30.13536,11.37009 30.13536,31.6144 0,20.42918 -29.95048,32.16903 z m -15.43744,-2.77319 -0.0924,-2.58832 -0.18488,-11.09277 0,-30.87487 0.18488,-12.94157 0.0924,-0.73952 q -9.33641,-1.66391 -18.85771,-1.66391 -9.33641,0 -18.30307,1.66391 l 0.0924,1.75636 0.27732,11.92473 0,30.87487 -0.0924,13.68109 q 9.42885,1.66391 18.48795,1.66391 9.0591,0 18.39551,-1.66391 z m -52.59822,-4.43711 -0.0924,-9.24398 0,-30.87487 0.0924,-9.15154 q -22.92505,9.42886 -22.92505,24.86629 0,14.8828 22.92505,24.4041 z"
           style="font-style:normal;font-weight:normal;font-size:medium;line-height:125%;font-family:sans-serif;letter-spacing:0px;word-spacing:0px;fill:url(#linearGradient4433);fill-opacity:1;stroke:none;stroke-width:1px;stroke-linecap:butt;stroke-linejoin:miter;stroke-opacity:1;filter:url(#filter4284)"
           id="path4425"
           inkscape:connector-curvature="0" />
        <path
           inkscape:connector-curvature="0"
           id="path4427"
           style="font-style:normal;font-weight:normal;font-size:medium;line-height:125%;font-family:sans-serif;letter-spacing:0px;word-spacing:0px;fill:#fed0d0;fill-opacity:1;stroke:none;stroke-width:1px;stroke-linecap:butt;stroke-linejoin:miter;stroke-opacity:1"
           d="m 812.50011,442.77028 q 22.92506,-9.5213 22.92506,-24.86629 0,-14.97524 -23.10994,-24.4041 l 0.27732,9.24398 0,30.87487 -0.0924,9.15154 z m -0.18488,7.30274 q -1.94124,30.41267 -8.50446,43.44668 -6.47078,13.034 -19.7821,13.034 -13.68109,0 -13.68109,-12.47936 0,-9.70618 8.5969,-9.70618 7.6725,0 7.6725,8.22714 0,3.14295 -2.86563,6.10103 1.75635,1.20171 3.60515,1.20171 10.44569,0 10.44569,-21.44602 l -0.27732,-13.77352 -0.36976,-10.44569 q -9.70617,1.57147 -18.76527,1.57147 -9.15153,0 -18.85771,-1.66391 -3.51271,52.41333 -27.9168,52.41333 -13.68108,0 -13.68108,-12.47936 0,-9.70618 8.59689,-9.70618 7.58006,0 7.58006,8.22714 0,3.14295 -2.86563,6.10103 1.75635,1.20171 3.60515,1.20171 10.53813,0 10.53813,-21.35358 l -0.36976,-13.86596 -0.4622,-14.60548 q -30.04292,-11.64741 -30.04292,-31.52196 0,-20.89138 29.95048,-32.26147 2.58832,-56.48068 28.19413,-56.48068 13.68108,0 13.68108,12.47936 0,9.70617 -8.41202,9.70617 -7.94982,0 -7.94982,-7.94981 0,-3.60515 2.95808,-6.28591 -2.21856,-1.10927 -3.60515,-1.10927 -10.53814,0 -10.53814,20.33674 l 0.36976,14.4206 0.36976,10.81545 q 8.87422,-1.66391 18.39551,-1.66391 9.70618,0 19.22747,1.66391 2.68075,-52.41333 28.00924,-52.41333 13.68109,0 13.68109,12.47936 0,9.70617 -8.50446,9.70617 -7.85738,0 -7.85738,-7.85737 0,-3.69759 2.86563,-6.37835 -2.12611,-1.10927 -3.60515,-1.10927 -10.53813,0 -10.53813,20.33674 l 0.36976,14.4206 0.55464,14.8828 q 30.13536,11.37009 30.13536,31.6144 0,20.42918 -29.95048,32.16903 z m -15.43744,-2.77319 -0.0924,-2.58832 -0.18488,-11.09277 0,-30.87487 0.18488,-12.94157 0.0924,-0.73952 q -9.33641,-1.66391 -18.85771,-1.66391 -9.33641,0 -18.30307,1.66391 l 0.0924,1.75636 0.27732,11.92473 0,30.87487 -0.0924,13.68109 q 9.42885,1.66391 18.48795,1.66391 9.0591,0 18.39551,-1.66391 z m -52.59822,-4.43711 -0.0924,-9.24398 0,-30.87487 0.0924,-9.15154 q -22.92505,9.42886 -22.92505,24.86629 0,14.8828 22.92505,24.4041 z" />
      </g>
    </g>
    <g
       id="g4396">
      <g
         inkscape:export-ydpi="6.132544"
         inkscape:export-xdpi="6.132544"
         inkscape:export-filename="/Users/mark/Inkscape/JavaSim/icon_square/icon16.png"
         transform="matrix(1.2054795,0,0,1.2054795,-19.372788,-80.355151)"
         id="g4410">
        <rect
           style="fill:url(#linearGradient4394);fill-opacity:1"
           id="rect4384"
           width="194.7879"
           height="194.7879"
           x="29.351603"
           y="358.59708" />
        <rect
           y="368.09808"
           x="38.852612"
           height="175.78589"
           width="175.78589"
           id="rect4396"
           style="fill:url(#linearGradient4398);fill-opacity:1" />
        <g
           transform="matrix(-0.00748144,0.91570442,-0.91570442,-0.00748144,516.98767,-251.80137)"
           id="g4402" />
      </g>
      <g
         transform="matrix(1.5178868,0,0,1.5178868,-459.1553,-232.58516)"
         id="g4376">
        <path
           inkscape:connector-curvature="0"
           id="path4378"
           style="font-style:normal;font-weight:normal;font-size:medium;line-height:125%;font-family:sans-serif;letter-spacing:0px;word-spacing:0px;fill:url(#linearGradient4384);fill-opacity:1;stroke:none;stroke-width:1px;stroke-linecap:butt;stroke-linejoin:miter;stroke-opacity:1;filter:url(#filter4309)"
           d="m 808.50011,446.77028 q 22.92506,-9.5213 22.92506,-24.86629 0,-14.97524 -23.10994,-24.4041 l 0.27732,9.24398 0,30.87487 -0.0924,9.15154 z m -0.18488,7.30274 q -1.94124,30.41267 -8.50446,43.44668 -6.47078,13.034 -19.7821,13.034 -13.68109,0 -13.68109,-12.47936 0,-9.70618 8.5969,-9.70618 7.6725,0 7.6725,8.22714 0,3.14295 -2.86563,6.10103 1.75635,1.20171 3.60515,1.20171 10.44569,0 10.44569,-21.44602 l -0.27732,-13.77352 -0.36976,-10.44569 q -9.70617,1.57147 -18.76527,1.57147 -9.15153,0 -18.85771,-1.66391 -3.51271,52.41333 -27.9168,52.41333 -13.68108,0 -13.68108,-12.47936 0,-9.70618 8.59689,-9.70618 7.58006,0 7.58006,8.22714 0,3.14295 -2.86563,6.10103 1.75635,1.20171 3.60515,1.20171 10.53813,0 10.53813,-21.35358 l -0.36976,-13.86596 -0.4622,-14.60548 q -30.04292,-11.64741 -30.04292,-31.52196 0,-20.89138 29.95048,-32.26147 2.58832,-56.48068 28.19413,-56.48068 13.68108,0 13.68108,12.47936 0,9.70617 -8.41202,9.70617 -7.94982,0 -7.94982,-7.94981 0,-3.60515 2.95808,-6.28591 -2.21856,-1.10927 -3.60515,-1.10927 -10.53814,0 -10.53814,20.33674 l 0.36976,14.4206 0.36976,10.81545 q 8.87422,-1.66391 18.39551,-1.66391 9.70618,0 19.22747,1.66391 2.68075,-52.41333 28.00924,-52.41333 13.68109,0 13.68109,12.47936 0,9.70617 -8.50446,9.70617 -7.85738,0 -7.85738,-7.85737 0,-3.69759 2.86563,-6.37835 -2.12611,-1.10927 -3.60515,-1.10927 -10.53813,0 -10.53813,20.33674 l 0.36976,14.4206 0.55464,14.8828 q 30.13536,11.37009 30.13536,31.6144 0,20.42918 -29.95048,32.16903 z m -15.43744,-2.77319 -0.0924,-2.58832 -0.18488,-11.09277 0,-30.87487 0.18488,-12.94157 0.0924,-0.73952 q -9.33641,-1.66391 -18.85771,-1.66391 -9.33641,0 -18.30307,1.66391 l 0.0924,1.75636 0.27732,11.92473 0,30.87487 -0.0924,13.68109 q 9.42885,1.66391 18.48795,1.66391 9.0591,0 18.39551,-1.66391 z m -52.59822,-4.43711 -0.0924,-9.24398 0,-30.87487 0.0924,-9.15154 q -22.92505,9.42886 -22.92505,24.86629 0,14.8828 22.92505,24.4041 z"
           transform="matrix(-0.00591697,0.71291425,-0.72421849,-0.00582461,699.93299,-90.952718)" />
        <path
           d="m 373.2194,486.58242 q 6.86866,16.92723 18.16066,17.01948 11.01991,0.09 18.09731,-16.85931 l -6.80408,0.1485 -22.72006,-0.18563 -6.73383,-0.12301 z m -5.3728,-0.17996 q -22.36826,-1.61136 -31.92021,-6.51943 -9.55249,-4.84005 -9.47246,-14.63552 0.0822,-10.06758 9.26551,-9.99255 7.14253,0.0584 7.09085,6.3846 -0.0461,5.646 -6.10028,5.59654 -2.31282,-0.0189 -4.47237,-2.14543 -0.89487,1.28523 -0.90598,2.64572 -0.0628,7.68673 15.71879,7.81566 l 10.13726,-0.12126 7.68895,-0.2093 q -1.09805,-7.15197 -1.04358,-13.81834 0.055,-6.73439 1.3378,-13.86692 -38.54855,-2.90004 -38.40183,-20.85841 0.0822,-10.06757 9.26551,-9.99254 7.14253,0.0584 7.09085,6.3846 -0.0456,5.57798 -6.09972,5.52851 -2.31282,-0.0189 -4.47237,-2.14542 -0.89487,1.28523 -0.90599,2.64571 -0.0634,7.75475 15.65022,7.88313 l 10.20584,-0.18873 10.75059,-0.25231 q 8.75167,-22.03782 23.37686,-21.91833 15.37345,0.12561 23.56035,22.23379 41.54717,2.24425 41.39323,21.08693 -0.0823,10.06757 -9.26551,9.99255 -7.14253,-0.0584 -7.09196,-6.24856 0.0478,-5.85007 5.89787,-5.80228 2.65294,0.0217 4.60786,2.21457 0.82962,-1.62591 0.83796,-2.64627 0.0634,-7.75476 -14.90195,-7.87703 l -10.61398,0.1854 -7.96105,0.20707 q 1.17108,6.54033 1.11383,13.54681 -0.0584,7.14254 -1.34003,14.13902 38.55356,2.28781 38.40128,20.92643 -0.0822,10.06757 -9.26551,9.99254 -7.14253,-0.0584 -7.0914,-6.31657 0.0472,-5.78206 5.82929,-5.73482 2.72096,0.0222 4.67644,2.1471 0.82907,-1.55788 0.83796,-2.64627 0.0634,-7.75475 -14.90195,-7.87702 l -10.61398,0.1854 -10.95522,0.31866 q -8.54815,22.10751 -23.44544,21.9858 -15.03333,-0.12283 -23.49233,-22.23323 z m 2.13354,-11.34336 1.90523,-0.0524 8.16401,-0.0694 22.72006,0.18563 9.52227,0.21386 0.54364,0.0724 q 1.28056,-6.86043 1.3378,-13.86692 0.0561,-6.87044 -1.11439,-13.47878 l -1.29301,0.0574 -8.77679,0.13238 -22.72005,-0.18563 -10.06702,-0.15024 q -1.28112,6.92845 -1.33558,13.59482 -0.0545,6.66637 1.11383,13.5468 z m 3.58139,-38.67905 6.80297,-0.0124 22.72006,0.18563 6.73383,0.12301 q -6.80063,-16.92666 -18.16066,-17.01948 -10.95188,-0.0895 -18.0962,16.72326 z"
           style="font-style:normal;font-weight:normal;font-size:medium;line-height:125%;font-family:sans-serif;letter-spacing:0px;word-spacing:0px;fill:#fee6e6;fill-opacity:1;stroke:none;stroke-width:1px;stroke-linecap:butt;stroke-linejoin:miter;stroke-opacity:1"
           id="path4380"
           inkscape:connector-curvature="0" />
        <path
           inkscape:connector-curvature="0"
           id="path4382"
           style="font-style:normal;font-weight:normal;font-size:medium;line-height:125%;font-family:sans-serif;letter-spacing:0px;word-spacing:0px;fill:url(#radialGradient4386);fill-opacity:1;stroke:none;stroke-width:1px;stroke-linecap:butt;stroke-linejoin:miter;stroke-opacity:1"
           d="m 373.2194,486.58242 q 6.86866,16.92723 18.16066,17.01948 11.01991,0.09 18.09731,-16.85931 l -6.80408,0.1485 -22.72006,-0.18563 -6.73383,-0.12301 z m -5.3728,-0.17996 q -22.36826,-1.61136 -31.92021,-6.51943 -9.55249,-4.84005 -9.47246,-14.63552 0.0822,-10.06758 9.26551,-9.99255 7.14253,0.0584 7.09085,6.3846 -0.0461,5.646 -6.10028,5.59654 -2.31282,-0.0189 -4.47237,-2.14543 -0.89487,1.28523 -0.90598,2.64572 -0.0628,7.68673 15.71879,7.81566 l 10.13726,-0.12126 7.68895,-0.2093 q -1.09805,-7.15197 -1.04358,-13.81834 0.055,-6.73439 1.3378,-13.86692 -38.54855,-2.90004 -38.40183,-20.85841 0.0822,-10.06757 9.26551,-9.99254 7.14253,0.0584 7.09085,6.3846 -0.0456,5.57798 -6.09972,5.52851 -2.31282,-0.0189 -4.47237,-2.14542 -0.89487,1.28523 -0.90599,2.64571 -0.0634,7.75475 15.65022,7.88313 l 10.20584,-0.18873 10.75059,-0.25231 q 8.75167,-22.03782 23.37686,-21.91833 15.37345,0.12561 23.56035,22.23379 41.54717,2.24425 41.39323,21.08693 -0.0823,10.06757 -9.26551,9.99255 -7.14253,-0.0584 -7.09196,-6.24856 0.0478,-5.85007 5.89787,-5.80228 2.65294,0.0217 4.60786,2.21457 0.82962,-1.62591 0.83796,-2.64627 0.0634,-7.75476 -14.90195,-7.87703 l -10.61398,0.1854 -7.96105,0.20707 q 1.17108,6.54033 1.11383,13.54681 -0.0584,7.14254 -1.34003,14.13902 38.55356,2.28781 38.40128,20.92643 -0.0822,10.06757 -9.26551,9.99254 -7.14253,-0.0584 -7.0914,-6.31657 0.0472,-5.78206 5.82929,-5.73482 2.72096,0.0222 4.67644,2.1471 0.82907,-1.55788 0.83796,-2.64627 0.0634,-7.75475 -14.90195,-7.87702 l -10.61398,0.1854 -10.95522,0.31866 q -8.54815,22.10751 -23.44544,21.9858 -15.03333,-0.12283 -23.49233,-22.23323 z m 2.13354,-11.34336 1.90523,-0.0524 8.16401,-0.0694 22.72006,0.18563 9.52227,0.21386 0.54364,0.0724 q 1.28056,-6.86043 1.3378,-13.86692 0.0561,-6.87044 -1.11439,-13.47878 l -1.29301,0.0574 -8.77679,0.13238 -22.72005,-0.18563 -10.06702,-0.15024 q -1.28112,6.92845 -1.33558,13.59482 -0.0545,6.66637 1.11383,13.5468 z m 3.58139,-38.67905 6.80297,-0.0124 22.72006,0.18563 6.73383,0.12301 q -6.80063,-16.92666 -18.16066,-17.01948 -10.95188,-0.0895 -18.0962,16.72326 z" />
      </g>
    </g>
    <g
       id="g4406"
       transform="translate(3.78027,248.14214)">
      <g
         id="g4408"
         transform="matrix(1.2054795,0,0,1.2054795,-19.372788,-80.355151)"
         inkscape:export-filename="/Users/mark/Inkscape/JavaSim/icon_square/icon16.png"
         inkscape:export-xdpi="6.132544"
         inkscape:export-ydpi="6.132544">
        <rect
           style="fill:url(#linearGradient4426);fill-opacity:1"
           id="rect4412"
           width="175.78589"
           height="175.78589"
           x="38.852612"
           y="368.09808" />
        <g
           id="g4414"
           transform="matrix(-0.00748144,0.91570442,-0.91570442,-0.00748144,516.98767,-251.80137)" />
      </g>
      <g
         id="g4416"
         transform="matrix(1.5178868,0,0,1.5178868,-459.1553,-232.58516)">
        <path
           transform="matrix(-0.00591697,0.71291425,-0.72421849,-0.00582461,699.93299,-90.952718)"
           d="m 808.50011,446.77028 q 22.92506,-9.5213 22.92506,-24.86629 0,-14.97524 -23.10994,-24.4041 l 0.27732,9.24398 0,30.87487 -0.0924,9.15154 z m -0.18488,7.30274 q -1.94124,30.41267 -8.50446,43.44668 -6.47078,13.034 -19.7821,13.034 -13.68109,0 -13.68109,-12.47936 0,-9.70618 8.5969,-9.70618 7.6725,0 7.6725,8.22714 0,3.14295 -2.86563,6.10103 1.75635,1.20171 3.60515,1.20171 10.44569,0 10.44569,-21.44602 l -0.27732,-13.77352 -0.36976,-10.44569 q -9.70617,1.57147 -18.76527,1.57147 -9.15153,0 -18.85771,-1.66391 -3.51271,52.41333 -27.9168,52.41333 -13.68108,0 -13.68108,-12.47936 0,-9.70618 8.59689,-9.70618 7.58006,0 7.58006,8.22714 0,3.14295 -2.86563,6.10103 1.75635,1.20171 3.60515,1.20171 10.53813,0 10.53813,-21.35358 l -0.36976,-13.86596 -0.4622,-14.60548 q -30.04292,-11.64741 -30.04292,-31.52196 0,-20.89138 29.95048,-32.26147 2.58832,-56.48068 28.19413,-56.48068 13.68108,0 13.68108,12.47936 0,9.70617 -8.41202,9.70617 -7.94982,0 -7.94982,-7.94981 0,-3.60515 2.95808,-6.28591 -2.21856,-1.10927 -3.60515,-1.10927 -10.53814,0 -10.53814,20.33674 l 0.36976,14.4206 0.36976,10.81545 q 8.87422,-1.66391 18.39551,-1.66391 9.70618,0 19.22747,1.66391 2.68075,-52.41333 28.00924,-52.41333 13.68109,0 13.68109,12.47936 0,9.70617 -8.50446,9.70617 -7.85738,0 -7.85738,-7.85737 0,-3.69759 2.86563,-6.37835 -2.12611,-1.10927 -3.60515,-1.10927 -10.53813,0 -10.53813,20.33674 l 0.36976,14.4206 0.55464,14.8828 q 30.13536,11.37009 30.13536,31.6144 0,20.42918 -29.95048,32.16903 z m -15.43744,-2.77319 -0.0924,-2.58832 -0.18488,-11.09277 0,-30.87487 0.18488,-12.94157 0.0924,-0.73952 q -9.33641,-1.66391 -18.85771,-1.66391 -9.33641,0 -18.30307,1.66391 l 0.0924,1.75636 0.27732,11.92473 0,30.87487 -0.0924,13.68109 q 9.42885,1.66391 18.48795,1.66391 9.0591,0 18.39551,-1.66391 z m -52.59822,-4.43711 -0.0924,-9.24398 0,-30.87487 0.0924,-9.15154 q -22.92505,9.42886 -22.92505,24.86629 0,14.8828 22.92505,24.4041 z"
           style="font-style:normal;font-weight:normal;font-size:medium;line-height:125%;font-family:sans-serif;letter-spacing:0px;word-spacing:0px;fill:url(#linearGradient4428);fill-opacity:1;stroke:none;stroke-width:1px;stroke-linecap:butt;stroke-linejoin:miter;stroke-opacity:1;filter:url(#filter4309)"
           id="path4418"
           inkscape:connector-curvature="0" />
        <path
           inkscape:connector-curvature="0"
           id="path4420"
           style="font-style:normal;font-weight:normal;font-size:medium;line-height:125%;font-family:sans-serif;letter-spacing:0px;word-spacing:0px;fill:#fee6e6;fill-opacity:1;stroke:none;stroke-width:1px;stroke-linecap:butt;stroke-linejoin:miter;stroke-opacity:1"
           d="m 373.2194,486.58242 q 6.86866,16.92723 18.16066,17.01948 11.01991,0.09 18.09731,-16.85931 l -6.80408,0.1485 -22.72006,-0.18563 -6.73383,-0.12301 z m -5.3728,-0.17996 q -22.36826,-1.61136 -31.92021,-6.51943 -9.55249,-4.84005 -9.47246,-14.63552 0.0822,-10.06758 9.26551,-9.99255 7.14253,0.0584 7.09085,6.3846 -0.0461,5.646 -6.10028,5.59654 -2.31282,-0.0189 -4.47237,-2.14543 -0.89487,1.28523 -0.90598,2.64572 -0.0628,7.68673 15.71879,7.81566 l 10.13726,-0.12126 7.68895,-0.2093 q -1.09805,-7.15197 -1.04358,-13.81834 0.055,-6.73439 1.3378,-13.86692 -38.54855,-2.90004 -38.40183,-20.85841 0.0822,-10.06757 9.26551,-9.99254 7.14253,0.0584 7.09085,6.3846 -0.0456,5.57798 -6.09972,5.52851 -2.31282,-0.0189 -4.47237,-2.14542 -0.89487,1.28523 -0.90599,2.64571 -0.0634,7.75475 15.65022,7.88313 l 10.20584,-0.18873 10.75059,-0.25231 q 8.75167,-22.03782 23.37686,-21.91833 15.37345,0.12561 23.56035,22.23379 41.54717,2.24425 41.39323,21.08693 -0.0823,10.06757 -9.26551,9.99255 -7.14253,-0.0584 -7.09196,-6.24856 0.0478,-5.85007 5.89787,-5.80228 2.65294,0.0217 4.60786,2.21457 0.82962,-1.62591 0.83796,-2.64627 0.0634,-7.75476 -14.90195,-7.87703 l -10.61398,0.1854 -7.96105,0.20707 q 1.17108,6.54033 1.11383,13.54681 -0.0584,7.14254 -1.34003,14.13902 38.55356,2.28781 38.40128,20.92643 -0.0822,10.06757 -9.26551,9.99254 -7.14253,-0.0584 -7.0914,-6.31657 0.0472,-5.78206 5.82929,-5.73482 2.72096,0.0222 4.67644,2.1471 0.82907,-1.55788 0.83796,-2.64627 0.0634,-7.75475 -14.90195,-7.87702 l -10.61398,0.1854 -10.95522,0.31866 q -8.54815,22.10751 -23.44544,21.9858 -15.03333,-0.12283 -23.49233,-22.23323 z m 2.13354,-11.34336 1.90523,-0.0524 8.16401,-0.0694 22.72006,0.18563 9.52227,0.21386 0.54364,0.0724 q 1.28056,-6.86043 1.3378,-13.86692 0.0561,-6.87044 -1.11439,-13.47878 l -1.29301,0.0574 -8.77679,0.13238 -22.72005,-0.18563 -10.06702,-0.15024 q -1.28112,6.92845 -1.33558,13.59482 -0.0545,6.66637 1.11383,13.5468 z m 3.58139,-38.67905 6.80297,-0.0124 22.72006,0.18563 6.73383,0.12301 q -6.80063,-16.92666 -18.16066,-17.01948 -10.95188,-0.0895 -18.0962,16.72326 z" />
        <path
           d="m 373.2194,486.58242 q 6.86866,16.92723 18.16066,17.01948 11.01991,0.09 18.09731,-16.85931 l -6.80408,0.1485 -22.72006,-0.18563 -6.73383,-0.12301 z m -5.3728,-0.17996 q -22.36826,-1.61136 -31.92021,-6.51943 -9.55249,-4.84005 -9.47246,-14.63552 0.0822,-10.06758 9.26551,-9.99255 7.14253,0.0584 7.09085,6.3846 -0.0461,5.646 -6.10028,5.59654 -2.31282,-0.0189 -4.47237,-2.14543 -0.89487,1.28523 -0.90598,2.64572 -0.0628,7.68673 15.71879,7.81566 l 10.13726,-0.12126 7.68895,-0.2093 q -1.09805,-7.15197 -1.04358,-13.81834 0.055,-6.73439 1.3378,-13.86692 -38.54855,-2.90004 -38.40183,-20.85841 0.0822,-10.06757 9.26551,-9.99254 7.14253,0.0584 7.09085,6.3846 -0.0456,5.57798 -6.09972,5.52851 -2.31282,-0.0189 -4.47237,-2.14542 -0.89487,1.28523 -0.90599,2.64571 -0.0634,7.75475 15.65022,7.88313 l 10.20584,-0.18873 10.75059,-0.25231 q 8.75167,-22.03782 23.37686,-21.91833 15.37345,0.12561 23.56035,22.23379 41.54717,2.24425 41.39323,21.08693 -0.0823,10.06757 -9.26551,9.99255 -7.14253,-0.0584 -7.09196,-6.24856 0.0478,-5.85007 5.89787,-5.80228 2.65294,0.0217 4.60786,2.21457 0.82962,-1.62591 0.83796,-2.64627 0.0634,-7.75476 -14.90195,-7.87703 l -10.61398,0.1854 -7.96105,0.20707 q 1.17108,6.54033 1.11383,13.54681 -0.0584,7.14254 -1.34003,14.13902 38.55356,2.28781 38.40128,20.92643 -0.0822,10.06757 -9.26551,9.99254 -7.14253,-0.0584 -7.0914,-6.31657 0.0472,-5.78206 5.82929,-5.73482 2.72096,0.0222 4.67644,2.1471 0.82907,-1.55788 0.83796,-2.64627 0.0634,-7.75475 -14.90195,-7.87702 l -10.61398,0.1854 -10.95522,0.31866 q -8.54815,22.10751 -23.44544,21.9858 -15.03333,-0.12283 -23.49233,-22.23323 z m 2.13354,-11.34336 1.90523,-0.0524 8.16401,-0.0694 22.72006,0.18563 9.52227,0.21386 0.54364,0.0724 q 1.28056,-6.86043 1.3378,-13.86692 0.0561,-6.87044 -1.11439,-13.47878 l -1.29301,0.0574 -8.77679,0.13238 -22.72005,-0.18563 -10.06702,-0.15024 q -1.28112,6.92845 -1.33558,13.59482 -0.0545,6.66637 1.11383,13.5468 z m 3.58139,-38.67905 6.80297,-0.0124 22.72006,0.18563 6.73383,0.12301 q -6.80063,-16.92666 -18.16066,-17.01948 -10.95188,-0.0895 -18.0962,16.72326 z"
           style="font-style:normal;font-weight:normal;font-size:medium;line-height:125%;font-family:sans-serif;letter-spacing:0px;word-spacing:0px;fill:url(#radialGradient4430);fill-opacity:1;stroke:none;stroke-width:1px;stroke-linecap:butt;stroke-linejoin:miter;stroke-opacity:1"
           id="path4422"
           inkscape:connector-curvature="0" />
      </g>
    </g>
    <rect
       style="opacity:1;fill:#f9f9f9;fill-opacity:1"
       id="rect4452"
       width="216"
       height="216"
       x="310.00699"
       y="444.65771" />
    <g
       id="g4465"
       transform="translate(574.76687,-160.02032)">
      <circle
         r="95.37973"
         cy="713.2149"
         cx="-156.75424"
         id="circle4434"
         style="fill:url(#radialGradient4444);fill-opacity:1;stroke:#5930fb;stroke-width:0;stroke-linecap:round;stroke-linejoin:miter;stroke-miterlimit:4;stroke-dasharray:none;stroke-opacity:1" />
      <circle
         style="fill:url(#radialGradient4446);fill-opacity:1;stroke:#5930fb;stroke-width:0;stroke-linecap:round;stroke-linejoin:miter;stroke-miterlimit:4;stroke-dasharray:none;stroke-opacity:1"
         id="circle4436"
         cx="-156.75424"
         cy="713.2149"
         r="88.48481" />
      <path
         inkscape:connector-curvature="0"
         id="path4438"
         style="font-style:normal;font-weight:normal;font-size:medium;line-height:125%;font-family:sans-serif;letter-spacing:0px;word-spacing:0px;fill:url(#linearGradient4448);fill-opacity:1;stroke:none;stroke-width:1px;stroke-linecap:butt;stroke-linejoin:miter;stroke-opacity:1;filter:url(#filter4309)"
         d="m 808.50011,446.77028 q 22.92506,-9.5213 22.92506,-24.86629 0,-14.97524 -23.10994,-24.4041 l 0.27732,9.24398 0,30.87487 -0.0924,9.15154 z m -0.18488,7.30274 q -1.94124,30.41267 -8.50446,43.44668 -6.47078,13.034 -19.7821,13.034 -13.68109,0 -13.68109,-12.47936 0,-9.70618 8.5969,-9.70618 7.6725,0 7.6725,8.22714 0,3.14295 -2.86563,6.10103 1.75635,1.20171 3.60515,1.20171 10.44569,0 10.44569,-21.44602 l -0.27732,-13.77352 -0.36976,-10.44569 q -9.70617,1.57147 -18.76527,1.57147 -9.15153,0 -18.85771,-1.66391 -3.51271,52.41333 -27.9168,52.41333 -13.68108,0 -13.68108,-12.47936 0,-9.70618 8.59689,-9.70618 7.58006,0 7.58006,8.22714 0,3.14295 -2.86563,6.10103 1.75635,1.20171 3.60515,1.20171 10.53813,0 10.53813,-21.35358 l -0.36976,-13.86596 -0.4622,-14.60548 q -30.04292,-11.64741 -30.04292,-31.52196 0,-20.89138 29.95048,-32.26147 2.58832,-56.48068 28.19413,-56.48068 13.68108,0 13.68108,12.47936 0,9.70617 -8.41202,9.70617 -7.94982,0 -7.94982,-7.94981 0,-3.60515 2.95808,-6.28591 -2.21856,-1.10927 -3.60515,-1.10927 -10.53814,0 -10.53814,20.33674 l 0.36976,14.4206 0.36976,10.81545 q 8.87422,-1.66391 18.39551,-1.66391 9.70618,0 19.22747,1.66391 2.68075,-52.41333 28.00924,-52.41333 13.68109,0 13.68109,12.47936 0,9.70617 -8.50446,9.70617 -7.85738,0 -7.85738,-7.85737 0,-3.69759 2.86563,-6.37835 -2.12611,-1.10927 -3.60515,-1.10927 -10.53813,0 -10.53813,20.33674 l 0.36976,14.4206 0.55464,14.8828 q 30.13536,11.37009 30.13536,31.6144 0,20.42918 -29.95048,32.16903 z m -15.43744,-2.77319 -0.0924,-2.58832 -0.18488,-11.09277 0,-30.87487 0.18488,-12.94157 0.0924,-0.73952 q -9.33641,-1.66391 -18.85771,-1.66391 -9.33641,0 -18.30307,1.66391 l 0.0924,1.75636 0.27732,11.92473 0,30.87487 -0.0924,13.68109 q 9.42885,1.66391 18.48795,1.66391 9.0591,0 18.39551,-1.66391 z m -52.59822,-4.43711 -0.0924,-9.24398 0,-30.87487 0.0924,-9.15154 q -22.92505,9.42886 -22.92505,24.86629 0,14.8828 22.92505,24.4041 z"
         transform="matrix(-0.00636864,0.76733381,-0.77950095,-0.00626922,175.91408,118.44483)" />
      <path
         d="m -175.73885,740.06551 q 7.39297,18.21934 19.54694,18.31864 11.8611,0.0969 19.47875,-18.14625 l -7.32347,0.15984 -24.45437,-0.1998 -7.24785,-0.1324 z m -5.78293,-0.1937 q -24.07572,-1.73436 -34.35681,-7.01709 -10.28166,-5.2095 -10.19552,-15.7527 0.0885,-10.83608 9.97278,-10.75532 7.68775,0.0629 7.63213,6.87196 -0.0496,6.07698 -6.56595,6.02374 -2.48937,-0.0204 -4.81376,-2.3092 -0.96318,1.38334 -0.97514,2.84769 -0.0676,8.27349 16.91867,8.41225 l 10.91108,-0.13052 8.27588,-0.22527 q -1.18187,-7.69791 -1.12324,-14.87315 0.0592,-7.24845 1.43991,-14.92543 -41.49111,-3.12142 -41.33319,-22.45062 0.0885,-10.83607 9.97278,-10.75531 7.68775,0.0629 7.63213,6.87196 -0.049,6.00377 -6.56534,5.95052 -2.48936,-0.0204 -4.81376,-2.30918 -0.96318,1.38334 -0.97515,2.84767 -0.0682,8.34669 16.84486,8.48487 l 10.9849,-0.20314 11.57122,-0.27156 q 9.41972,-23.72006 25.16131,-23.59144 16.54697,0.1352 25.3588,23.93097 44.718629,2.41557 44.552939,22.69659 -0.08858,10.83606 -9.972784,10.75531 -7.687735,-0.0629 -7.633315,-6.72553 0.0515,-6.29663 6.348076,-6.24519 2.855449,0.0234 4.959596,2.38362 0.892948,-1.75003 0.901925,-2.84828 0.06824,-8.34671 -16.039477,-8.47831 l -11.42418,0.19955 -8.56875,0.22288 q 1.26048,7.03958 1.19885,14.5809 -0.0629,7.68775 -1.44232,15.2183 41.496506,2.46245 41.332602,22.52383 -0.08848,10.83606 -9.972784,10.7553 -7.687748,-0.0629 -7.632708,-6.79873 0.0508,-6.22343 6.274256,-6.17259 2.928662,0.0239 5.033412,2.311 0.892356,-1.6768 0.901924,-2.84827 0.06824,-8.3467 -16.039472,-8.4783 l -11.42419,0.19955 -11.79147,0.34299 q -9.20066,23.79505 -25.23513,23.66405 -16.18088,-0.1322 -25.28559,-23.93037 z m 2.2964,-12.20924 2.05067,-0.0564 8.7872,-0.0747 24.45437,0.1998 10.24915,0.23018 0.58513,0.0779 q 1.37831,-7.3841 1.43992,-14.92543 0.0603,-7.39489 -1.19945,-14.50767 l -1.39171,0.0618 -9.44677,0.14249 -24.45436,-0.19981 -10.83547,-0.1617 q -1.37891,7.45732 -1.43753,14.63257 -0.0587,7.17524 1.19885,14.58088 z m 3.85477,-41.63158 7.32227,-0.0134 24.45437,0.1998 7.24786,0.13241 q -7.31976,-18.21874 -19.54694,-18.31865 -11.78788,-0.0963 -19.47756,17.99981 z"
         style="font-style:normal;font-weight:normal;font-size:medium;line-height:125%;font-family:sans-serif;letter-spacing:0px;word-spacing:0px;fill:#fee6e6;fill-opacity:1;stroke:none;stroke-width:1px;stroke-linecap:butt;stroke-linejoin:miter;stroke-opacity:1"
         id="path4440"
         inkscape:connector-curvature="0" />
      <path
         inkscape:connector-curvature="0"
         id="path4442"
         style="font-style:normal;font-weight:normal;font-size:medium;line-height:125%;font-family:sans-serif;letter-spacing:0px;word-spacing:0px;fill:url(#radialGradient4450);fill-opacity:1;stroke:none;stroke-width:1px;stroke-linecap:butt;stroke-linejoin:miter;stroke-opacity:1"
         d="m -175.73885,740.06551 q 7.39297,18.21934 19.54694,18.31864 11.8611,0.0969 19.47875,-18.14625 l -7.32347,0.15984 -24.45437,-0.1998 -7.24785,-0.1324 z m -5.78293,-0.1937 q -24.07572,-1.73436 -34.35681,-7.01709 -10.28166,-5.2095 -10.19552,-15.7527 0.0885,-10.83608 9.97278,-10.75532 7.68775,0.0629 7.63213,6.87196 -0.0496,6.07698 -6.56595,6.02374 -2.48937,-0.0204 -4.81376,-2.3092 -0.96318,1.38334 -0.97514,2.84769 -0.0676,8.27349 16.91867,8.41225 l 10.91108,-0.13052 8.27588,-0.22527 q -1.18187,-7.69791 -1.12324,-14.87315 0.0592,-7.24845 1.43991,-14.92543 -41.49111,-3.12142 -41.33319,-22.45062 0.0885,-10.83607 9.97278,-10.75531 7.68775,0.0629 7.63213,6.87196 -0.049,6.00377 -6.56534,5.95052 -2.48936,-0.0204 -4.81376,-2.30918 -0.96318,1.38334 -0.97515,2.84767 -0.0682,8.34669 16.84486,8.48487 l 10.9849,-0.20314 11.57122,-0.27156 q 9.41972,-23.72006 25.16131,-23.59144 16.54697,0.1352 25.3588,23.93097 44.718629,2.41557 44.552939,22.69659 -0.08858,10.83606 -9.972784,10.75531 -7.687735,-0.0629 -7.633315,-6.72553 0.0515,-6.29663 6.348076,-6.24519 2.855449,0.0234 4.959596,2.38362 0.892948,-1.75003 0.901925,-2.84828 0.06824,-8.34671 -16.039477,-8.47831 l -11.42418,0.19955 -8.56875,0.22288 q 1.26048,7.03958 1.19885,14.5809 -0.0629,7.68775 -1.44232,15.2183 41.496506,2.46245 41.332602,22.52383 -0.08848,10.83606 -9.972784,10.7553 -7.687748,-0.0629 -7.632708,-6.79873 0.0508,-6.22343 6.274256,-6.17259 2.928662,0.0239 5.033412,2.311 0.892356,-1.6768 0.901924,-2.84827 0.06824,-8.3467 -16.039472,-8.4783 l -11.42419,0.19955 -11.79147,0.34299 q -9.20066,23.79505 -25.23513,23.66405 -16.18088,-0.1322 -25.28559,-23.93037 z m 2.2964,-12.20924 2.05067,-0.0564 8.7872,-0.0747 24.45437,0.1998 10.24915,0.23018 0.58513,0.0779 q 1.37831,-7.3841 1.43992,-14.92543 0.0603,-7.39489 -1.19945,-14.50767 l -1.39171,0.0618 -9.44677,0.14249 -24.45436,-0.19981 -10.83547,-0.1617 q -1.37891,7.45732 -1.43753,14.63257 -0.0587,7.17524 1.19885,14.58088 z m 3.85477,-41.63158 7.32227,-0.0134 24.45437,0.1998 7.24786,0.13241 q -7.31976,-18.21874 -19.54694,-18.31865 -11.78788,-0.0963 -19.47756,17.99981 z" />
    </g>
    <g
       id="g4472"
       transform="translate(299.49229,-596.00743)">
      <circle
         style="fill:url(#radialGradient4484);fill-opacity:1;stroke:#5930fb;stroke-width:0;stroke-linecap:round;stroke-linejoin:miter;stroke-miterlimit:4;stroke-dasharray:none;stroke-opacity:1"
         id="circle4474"
         cx="-156.75424"
         cy="713.2149"
         r="95.37973" />
      <circle
         r="88.48481"
         cy="713.2149"
         cx="-156.75424"
         id="circle4476"
         style="fill:url(#radialGradient4486);fill-opacity:1;stroke:#5930fb;stroke-width:0;stroke-linecap:round;stroke-linejoin:miter;stroke-miterlimit:4;stroke-dasharray:none;stroke-opacity:1" />
      <path
         transform="matrix(-0.00636864,0.76733381,-0.77950095,-0.00626922,175.91408,118.44483)"
         d="m 808.50011,446.77028 q 22.92506,-9.5213 22.92506,-24.86629 0,-14.97524 -23.10994,-24.4041 l 0.27732,9.24398 0,30.87487 -0.0924,9.15154 z m -0.18488,7.30274 q -1.94124,30.41267 -8.50446,43.44668 -6.47078,13.034 -19.7821,13.034 -13.68109,0 -13.68109,-12.47936 0,-9.70618 8.5969,-9.70618 7.6725,0 7.6725,8.22714 0,3.14295 -2.86563,6.10103 1.75635,1.20171 3.60515,1.20171 10.44569,0 10.44569,-21.44602 l -0.27732,-13.77352 -0.36976,-10.44569 q -9.70617,1.57147 -18.76527,1.57147 -9.15153,0 -18.85771,-1.66391 -3.51271,52.41333 -27.9168,52.41333 -13.68108,0 -13.68108,-12.47936 0,-9.70618 8.59689,-9.70618 7.58006,0 7.58006,8.22714 0,3.14295 -2.86563,6.10103 1.75635,1.20171 3.60515,1.20171 10.53813,0 10.53813,-21.35358 l -0.36976,-13.86596 -0.4622,-14.60548 q -30.04292,-11.64741 -30.04292,-31.52196 0,-20.89138 29.95048,-32.26147 2.58832,-56.48068 28.19413,-56.48068 13.68108,0 13.68108,12.47936 0,9.70617 -8.41202,9.70617 -7.94982,0 -7.94982,-7.94981 0,-3.60515 2.95808,-6.28591 -2.21856,-1.10927 -3.60515,-1.10927 -10.53814,0 -10.53814,20.33674 l 0.36976,14.4206 0.36976,10.81545 q 8.87422,-1.66391 18.39551,-1.66391 9.70618,0 19.22747,1.66391 2.68075,-52.41333 28.00924,-52.41333 13.68109,0 13.68109,12.47936 0,9.70617 -8.50446,9.70617 -7.85738,0 -7.85738,-7.85737 0,-3.69759 2.86563,-6.37835 -2.12611,-1.10927 -3.60515,-1.10927 -10.53813,0 -10.53813,20.33674 l 0.36976,14.4206 0.55464,14.8828 q 30.13536,11.37009 30.13536,31.6144 0,20.42918 -29.95048,32.16903 z m -15.43744,-2.77319 -0.0924,-2.58832 -0.18488,-11.09277 0,-30.87487 0.18488,-12.94157 0.0924,-0.73952 q -9.33641,-1.66391 -18.85771,-1.66391 -9.33641,0 -18.30307,1.66391 l 0.0924,1.75636 0.27732,11.92473 0,30.87487 -0.0924,13.68109 q 9.42885,1.66391 18.48795,1.66391 9.0591,0 18.39551,-1.66391 z m -52.59822,-4.43711 -0.0924,-9.24398 0,-30.87487 0.0924,-9.15154 q -22.92505,9.42886 -22.92505,24.86629 0,14.8828 22.92505,24.4041 z"
         style="font-style:normal;font-weight:normal;font-size:medium;line-height:125%;font-family:sans-serif;letter-spacing:0px;word-spacing:0px;fill:url(#linearGradient4488);fill-opacity:1;stroke:none;stroke-width:1px;stroke-linecap:butt;stroke-linejoin:miter;stroke-opacity:1;filter:url(#filter4309)"
         id="path4478"
         inkscape:connector-curvature="0" />
      <path
         inkscape:connector-curvature="0"
         id="path4480"
         style="font-style:normal;font-weight:normal;font-size:medium;line-height:125%;font-family:sans-serif;letter-spacing:0px;word-spacing:0px;fill:#fee6e6;fill-opacity:1;stroke:none;stroke-width:1px;stroke-linecap:butt;stroke-linejoin:miter;stroke-opacity:1"
         d="m -175.73885,740.06551 q 7.39297,18.21934 19.54694,18.31864 11.8611,0.0969 19.47875,-18.14625 l -7.32347,0.15984 -24.45437,-0.1998 -7.24785,-0.1324 z m -5.78293,-0.1937 q -24.07572,-1.73436 -34.35681,-7.01709 -10.28166,-5.2095 -10.19552,-15.7527 0.0885,-10.83608 9.97278,-10.75532 7.68775,0.0629 7.63213,6.87196 -0.0496,6.07698 -6.56595,6.02374 -2.48937,-0.0204 -4.81376,-2.3092 -0.96318,1.38334 -0.97514,2.84769 -0.0676,8.27349 16.91867,8.41225 l 10.91108,-0.13052 8.27588,-0.22527 q -1.18187,-7.69791 -1.12324,-14.87315 0.0592,-7.24845 1.43991,-14.92543 -41.49111,-3.12142 -41.33319,-22.45062 0.0885,-10.83607 9.97278,-10.75531 7.68775,0.0629 7.63213,6.87196 -0.049,6.00377 -6.56534,5.95052 -2.48936,-0.0204 -4.81376,-2.30918 -0.96318,1.38334 -0.97515,2.84767 -0.0682,8.34669 16.84486,8.48487 l 10.9849,-0.20314 11.57122,-0.27156 q 9.41972,-23.72006 25.16131,-23.59144 16.54697,0.1352 25.3588,23.93097 44.718629,2.41557 44.552939,22.69659 -0.08858,10.83606 -9.972784,10.75531 -7.687735,-0.0629 -7.633315,-6.72553 0.0515,-6.29663 6.348076,-6.24519 2.855449,0.0234 4.959596,2.38362 0.892948,-1.75003 0.901925,-2.84828 0.06824,-8.34671 -16.039477,-8.47831 l -11.42418,0.19955 -8.56875,0.22288 q 1.26048,7.03958 1.19885,14.5809 -0.0629,7.68775 -1.44232,15.2183 41.496506,2.46245 41.332602,22.52383 -0.08848,10.83606 -9.972784,10.7553 -7.687748,-0.0629 -7.632708,-6.79873 0.0508,-6.22343 6.274256,-6.17259 2.928662,0.0239 5.033412,2.311 0.892356,-1.6768 0.901924,-2.84827 0.06824,-8.3467 -16.039472,-8.4783 l -11.42419,0.19955 -11.79147,0.34299 q -9.20066,23.79505 -25.23513,23.66405 -16.18088,-0.1322 -25.28559,-23.93037 z m 2.2964,-12.20924 2.05067,-0.0564 8.7872,-0.0747 24.45437,0.1998 10.24915,0.23018 0.58513,0.0779 q 1.37831,-7.3841 1.43992,-14.92543 0.0603,-7.39489 -1.19945,-14.50767 l -1.39171,0.0618 -9.44677,0.14249 -24.45436,-0.19981 -10.83547,-0.1617 q -1.37891,7.45732 -1.43753,14.63257 -0.0587,7.17524 1.19885,14.58088 z m 3.85477,-41.63158 7.32227,-0.0134 24.45437,0.1998 7.24786,0.13241 q -7.31976,-18.21874 -19.54694,-18.31865 -11.78788,-0.0963 -19.47756,17.99981 z" />
      <path
         d="m -175.73885,740.06551 q 7.39297,18.21934 19.54694,18.31864 11.8611,0.0969 19.47875,-18.14625 l -7.32347,0.15984 -24.45437,-0.1998 -7.24785,-0.1324 z m -5.78293,-0.1937 q -24.07572,-1.73436 -34.35681,-7.01709 -10.28166,-5.2095 -10.19552,-15.7527 0.0885,-10.83608 9.97278,-10.75532 7.68775,0.0629 7.63213,6.87196 -0.0496,6.07698 -6.56595,6.02374 -2.48937,-0.0204 -4.81376,-2.3092 -0.96318,1.38334 -0.97514,2.84769 -0.0676,8.27349 16.91867,8.41225 l 10.91108,-0.13052 8.27588,-0.22527 q -1.18187,-7.69791 -1.12324,-14.87315 0.0592,-7.24845 1.43991,-14.92543 -41.49111,-3.12142 -41.33319,-22.45062 0.0885,-10.83607 9.97278,-10.75531 7.68775,0.0629 7.63213,6.87196 -0.049,6.00377 -6.56534,5.95052 -2.48936,-0.0204 -4.81376,-2.30918 -0.96318,1.38334 -0.97515,2.84767 -0.0682,8.34669 16.84486,8.48487 l 10.9849,-0.20314 11.57122,-0.27156 q 9.41972,-23.72006 25.16131,-23.59144 16.54697,0.1352 25.3588,23.93097 44.718629,2.41557 44.552939,22.69659 -0.08858,10.83606 -9.972784,10.75531 -7.687735,-0.0629 -7.633315,-6.72553 0.0515,-6.29663 6.348076,-6.24519 2.855449,0.0234 4.959596,2.38362 0.892948,-1.75003 0.901925,-2.84828 0.06824,-8.34671 -16.039477,-8.47831 l -11.42418,0.19955 -8.56875,0.22288 q 1.26048,7.03958 1.19885,14.5809 -0.0629,7.68775 -1.44232,15.2183 41.496506,2.46245 41.332602,22.52383 -0.08848,10.83606 -9.972784,10.7553 -7.687748,-0.0629 -7.632708,-6.79873 0.0508,-6.22343 6.274256,-6.17259 2.928662,0.0239 5.033412,2.311 0.892356,-1.6768 0.901924,-2.84827 0.06824,-8.3467 -16.039472,-8.4783 l -11.42419,0.19955 -11.79147,0.34299 q -9.20066,23.79505 -25.23513,23.66405 -16.18088,-0.1322 -25.28559,-23.93037 z m 2.2964,-12.20924 2.05067,-0.0564 8.7872,-0.0747 24.45437,0.1998 10.24915,0.23018 0.58513,0.0779 q 1.37831,-7.3841 1.43992,-14.92543 0.0603,-7.39489 -1.19945,-14.50767 l -1.39171,0.0618 -9.44677,0.14249 -24.45436,-0.19981 -10.83547,-0.1617 q -1.37891,7.45732 -1.43753,14.63257 -0.0587,7.17524 1.19885,14.58088 z m 3.85477,-41.63158 7.32227,-0.0134 24.45437,0.1998 7.24786,0.13241 q -7.31976,-18.21874 -19.54694,-18.31865 -11.78788,-0.0963 -19.47756,17.99981 z"
         style="font-style:normal;font-weight:normal;font-size:medium;line-height:125%;font-family:sans-serif;letter-spacing:0px;word-spacing:0px;fill:url(#radialGradient4490);fill-opacity:1;stroke:none;stroke-width:1px;stroke-linecap:butt;stroke-linejoin:miter;stroke-opacity:1"
         id="path4482"
         inkscape:connector-curvature="0" />
    </g>
    <g
       id="g3677"
       transform="matrix(-0.00901872,1.1038629,-1.1038629,-0.00901872,879.84525,-565.89654)" />
    <g
       transform="matrix(1.5178868,0,0,1.5178868,-183.1553,-414.58516)"
       id="g3679" />
    <g
       id="g3737">
      <rect
         style="fill:url(#linearGradient3687);fill-opacity:1"
         id="rect3673"
         width="234.81282"
         height="234.81282"
         x="292.00998"
         y="169.92627" />
      <rect
         y="181.37955"
         x="303.46323"
         height="211.90628"
         width="211.90628"
         id="rect3675"
         style="fill:url(#linearGradient3689);fill-opacity:1" />
      <g
         id="g3695"
         transform="matrix(1.428438,0,0,1.428438,634.06766,-731.37257)">
        <path
           transform="matrix(-0.00636864,0.76733381,-0.77950095,-0.00626922,175.91408,118.44483)"
           d="m 808.50011,446.77028 q 22.92506,-9.5213 22.92506,-24.86629 0,-14.97524 -23.10994,-24.4041 l 0.27732,9.24398 0,30.87487 -0.0924,9.15154 z m -0.18488,7.30274 q -1.94124,30.41267 -8.50446,43.44668 -6.47078,13.034 -19.7821,13.034 -13.68109,0 -13.68109,-12.47936 0,-9.70618 8.5969,-9.70618 7.6725,0 7.6725,8.22714 0,3.14295 -2.86563,6.10103 1.75635,1.20171 3.60515,1.20171 10.44569,0 10.44569,-21.44602 l -0.27732,-13.77352 -0.36976,-10.44569 q -9.70617,1.57147 -18.76527,1.57147 -9.15153,0 -18.85771,-1.66391 -3.51271,52.41333 -27.9168,52.41333 -13.68108,0 -13.68108,-12.47936 0,-9.70618 8.59689,-9.70618 7.58006,0 7.58006,8.22714 0,3.14295 -2.86563,6.10103 1.75635,1.20171 3.60515,1.20171 10.53813,0 10.53813,-21.35358 l -0.36976,-13.86596 -0.4622,-14.60548 q -30.04292,-11.64741 -30.04292,-31.52196 0,-20.89138 29.95048,-32.26147 2.58832,-56.48068 28.19413,-56.48068 13.68108,0 13.68108,12.47936 0,9.70617 -8.41202,9.70617 -7.94982,0 -7.94982,-7.94981 0,-3.60515 2.95808,-6.28591 -2.21856,-1.10927 -3.60515,-1.10927 -10.53814,0 -10.53814,20.33674 l 0.36976,14.4206 0.36976,10.81545 q 8.87422,-1.66391 18.39551,-1.66391 9.70618,0 19.22747,1.66391 2.68075,-52.41333 28.00924,-52.41333 13.68109,0 13.68109,12.47936 0,9.70617 -8.50446,9.70617 -7.85738,0 -7.85738,-7.85737 0,-3.69759 2.86563,-6.37835 -2.12611,-1.10927 -3.60515,-1.10927 -10.53813,0 -10.53813,20.33674 l 0.36976,14.4206 0.55464,14.8828 q 30.13536,11.37009 30.13536,31.6144 0,20.42918 -29.95048,32.16903 z m -15.43744,-2.77319 -0.0924,-2.58832 -0.18488,-11.09277 0,-30.87487 0.18488,-12.94157 0.0924,-0.73952 q -9.33641,-1.66391 -18.85771,-1.66391 -9.33641,0 -18.30307,1.66391 l 0.0924,1.75636 0.27732,11.92473 0,30.87487 -0.0924,13.68109 q 9.42885,1.66391 18.48795,1.66391 9.0591,0 18.39551,-1.66391 z m -52.59822,-4.43711 -0.0924,-9.24398 0,-30.87487 0.0924,-9.15154 q -22.92505,9.42886 -22.92505,24.86629 0,14.8828 22.92505,24.4041 z"
           style="font-style:normal;font-weight:normal;font-size:medium;line-height:125%;font-family:sans-serif;letter-spacing:0px;word-spacing:0px;fill:url(#linearGradient3711);fill-opacity:1;stroke:none;stroke-width:1px;stroke-linecap:butt;stroke-linejoin:miter;stroke-opacity:1;filter:url(#filter4309)"
           id="path3701"
           inkscape:connector-curvature="0" />
        <path
           inkscape:connector-curvature="0"
           id="path3703"
           style="font-style:normal;font-weight:normal;font-size:medium;line-height:125%;font-family:sans-serif;letter-spacing:0px;word-spacing:0px;fill:#fee6e6;fill-opacity:1;stroke:none;stroke-width:1px;stroke-linecap:butt;stroke-linejoin:miter;stroke-opacity:1"
           d="m -175.73885,740.06551 q 7.39297,18.21934 19.54694,18.31864 11.8611,0.0969 19.47875,-18.14625 l -7.32347,0.15984 -24.45437,-0.1998 -7.24785,-0.1324 z m -5.78293,-0.1937 q -24.07572,-1.73436 -34.35681,-7.01709 -10.28166,-5.2095 -10.19552,-15.7527 0.0885,-10.83608 9.97278,-10.75532 7.68775,0.0629 7.63213,6.87196 -0.0496,6.07698 -6.56595,6.02374 -2.48937,-0.0204 -4.81376,-2.3092 -0.96318,1.38334 -0.97514,2.84769 -0.0676,8.27349 16.91867,8.41225 l 10.91108,-0.13052 8.27588,-0.22527 q -1.18187,-7.69791 -1.12324,-14.87315 0.0592,-7.24845 1.43991,-14.92543 -41.49111,-3.12142 -41.33319,-22.45062 0.0885,-10.83607 9.97278,-10.75531 7.68775,0.0629 7.63213,6.87196 -0.049,6.00377 -6.56534,5.95052 -2.48936,-0.0204 -4.81376,-2.30918 -0.96318,1.38334 -0.97515,2.84767 -0.0682,8.34669 16.84486,8.48487 l 10.9849,-0.20314 11.57122,-0.27156 q 9.41972,-23.72006 25.16131,-23.59144 16.54697,0.1352 25.3588,23.93097 44.718629,2.41557 44.552939,22.69659 -0.08858,10.83606 -9.972784,10.75531 -7.687735,-0.0629 -7.633315,-6.72553 0.0515,-6.29663 6.348076,-6.24519 2.855449,0.0234 4.959596,2.38362 0.892948,-1.75003 0.901925,-2.84828 0.06824,-8.34671 -16.039477,-8.47831 l -11.42418,0.19955 -8.56875,0.22288 q 1.26048,7.03958 1.19885,14.5809 -0.0629,7.68775 -1.44232,15.2183 41.496506,2.46245 41.332602,22.52383 -0.08848,10.83606 -9.972784,10.7553 -7.687748,-0.0629 -7.632708,-6.79873 0.0508,-6.22343 6.274256,-6.17259 2.928662,0.0239 5.033412,2.311 0.892356,-1.6768 0.901924,-2.84827 0.06824,-8.3467 -16.039472,-8.4783 l -11.42419,0.19955 -11.79147,0.34299 q -9.20066,23.79505 -25.23513,23.66405 -16.18088,-0.1322 -25.28559,-23.93037 z m 2.2964,-12.20924 2.05067,-0.0564 8.7872,-0.0747 24.45437,0.1998 10.24915,0.23018 0.58513,0.0779 q 1.37831,-7.3841 1.43992,-14.92543 0.0603,-7.39489 -1.19945,-14.50767 l -1.39171,0.0618 -9.44677,0.14249 -24.45436,-0.19981 -10.83547,-0.1617 q -1.37891,7.45732 -1.43753,14.63257 -0.0587,7.17524 1.19885,14.58088 z m 3.85477,-41.63158 7.32227,-0.0134 24.45437,0.1998 7.24786,0.13241 q -7.31976,-18.21874 -19.54694,-18.31865 -11.78788,-0.0963 -19.47756,17.99981 z" />
        <path
           d="m -175.73885,740.06551 q 7.39297,18.21934 19.54694,18.31864 11.8611,0.0969 19.47875,-18.14625 l -7.32347,0.15984 -24.45437,-0.1998 -7.24785,-0.1324 z m -5.78293,-0.1937 q -24.07572,-1.73436 -34.35681,-7.01709 -10.28166,-5.2095 -10.19552,-15.7527 0.0885,-10.83608 9.97278,-10.75532 7.68775,0.0629 7.63213,6.87196 -0.0496,6.07698 -6.56595,6.02374 -2.48937,-0.0204 -4.81376,-2.3092 -0.96318,1.38334 -0.97514,2.84769 -0.0676,8.27349 16.91867,8.41225 l 10.91108,-0.13052 8.27588,-0.22527 q -1.18187,-7.69791 -1.12324,-14.87315 0.0592,-7.24845 1.43991,-14.92543 -41.49111,-3.12142 -41.33319,-22.45062 0.0885,-10.83607 9.97278,-10.75531 7.68775,0.0629 7.63213,6.87196 -0.049,6.00377 -6.56534,5.95052 -2.48936,-0.0204 -4.81376,-2.30918 -0.96318,1.38334 -0.97515,2.84767 -0.0682,8.34669 16.84486,8.48487 l 10.9849,-0.20314 11.57122,-0.27156 q 9.41972,-23.72006 25.16131,-23.59144 16.54697,0.1352 25.3588,23.93097 44.718629,2.41557 44.552939,22.69659 -0.08858,10.83606 -9.972784,10.75531 -7.687735,-0.0629 -7.633315,-6.72553 0.0515,-6.29663 6.348076,-6.24519 2.855449,0.0234 4.959596,2.38362 0.892948,-1.75003 0.901925,-2.84828 0.06824,-8.34671 -16.039477,-8.47831 l -11.42418,0.19955 -8.56875,0.22288 q 1.26048,7.03958 1.19885,14.5809 -0.0629,7.68775 -1.44232,15.2183 41.496506,2.46245 41.332602,22.52383 -0.08848,10.83606 -9.972784,10.7553 -7.687748,-0.0629 -7.632708,-6.79873 0.0508,-6.22343 6.274256,-6.17259 2.928662,0.0239 5.033412,2.311 0.892356,-1.6768 0.901924,-2.84827 0.06824,-8.3467 -16.039472,-8.4783 l -11.42419,0.19955 -11.79147,0.34299 q -9.20066,23.79505 -25.23513,23.66405 -16.18088,-0.1322 -25.28559,-23.93037 z m 2.2964,-12.20924 2.05067,-0.0564 8.7872,-0.0747 24.45437,0.1998 10.24915,0.23018 0.58513,0.0779 q 1.37831,-7.3841 1.43992,-14.92543 0.0603,-7.39489 -1.19945,-14.50767 l -1.39171,0.0618 -9.44677,0.14249 -24.45436,-0.19981 -10.83547,-0.1617 q -1.37891,7.45732 -1.43753,14.63257 -0.0587,7.17524 1.19885,14.58088 z m 3.85477,-41.63158 7.32227,-0.0134 24.45437,0.1998 7.24786,0.13241 q -7.31976,-18.21874 -19.54694,-18.31865 -11.78788,-0.0963 -19.47756,17.99981 z"
           style="font-style:normal;font-weight:normal;font-size:medium;line-height:125%;font-family:sans-serif;letter-spacing:0px;word-spacing:0px;fill:url(#radialGradient3713);fill-opacity:1;stroke:none;stroke-width:1px;stroke-linecap:butt;stroke-linejoin:miter;stroke-opacity:1"
           id="path3705"
           inkscape:connector-curvature="0" />
      </g>
    </g>
  </g>
</svg>
